HIERARCHY
ROOT Hips
{
    OFFSET   0.000000   0.000000   0.000000
    CHANNELS 6 Xposition Yposition Zposition Zrotation Xrotation Yrotation
    JOINT Chest
    {
        OFFSET   0.000000   8.007240   0.000000
        CHANNELS 3 Zrotation Xrotation Yrotation
        JOINT Chest2
        {
            OFFSET   0.000000  22.077100   0.000000
            CHANNELS 3 Zrotation Xrotation Yrotation
            JOINT Neck
            {
                OFFSET   0.000000  23.254800   0.000000
                CHANNELS 3 Zrotation Xrotation Yrotation
                JOINT Head
                {
                    OFFSET   0.000000  14.370000   1.956600
                    CHANNELS 3 Zrotation Xrotation Yrotation
                    End Site
                    {
                        OFFSET   0.000000  19.566000   0.000000
                    }
                }
            }
            JOINT LeftCollar
            {
                OFFSET   3.911900  19.017000  -0.467064
                CHANNELS 3 Zrotation Xrotation Yrotation
                JOINT LeftShoulder
                {
                    OFFSET  10.383700   0.000000   0.000000
                    CHANNELS 3 Zrotation Xrotation Yrotation
                    JOINT LeftElbow
                    {
                        OFFSET  26.662100   0.001476   0.000517
                        CHANNELS 3 Zrotation Xrotation Yrotation
                        JOINT LeftWrist
                        {
                            OFFSET  28.869000  -0.000025  -0.000106
                            CHANNELS 3 Zrotation Xrotation Yrotation
                            JOINT LeftFinger0
                            {
                                OFFSET   2.044660  -2.323460   3.252850
                                CHANNELS 3 Zrotation Xrotation Yrotation
                                JOINT LeftFinger01
                                {
                                    OFFSET   3.088130   0.000000   0.000000
                                    CHANNELS 3 Zrotation Xrotation Yrotation
                                    JOINT LeftFinger02
                                    {
                                        OFFSET   2.639460   0.000000   0.000000
                                        CHANNELS 3 Zrotation Xrotation Yrotation
                                        End Site
                                        {
                                            OFFSET   2.582190   0.000000   0.000000
                                        }
                                    }
                                }
                            }
                            JOINT LeftFinger1
                            {
                                OFFSET   8.364480   0.000000   3.252850
                                CHANNELS 3 Zrotation Xrotation Yrotation
                                JOINT LeftFinger11
                                {
                                    OFFSET   4.646930   0.000000   0.000000
                                    CHANNELS 3 Zrotation Xrotation Yrotation
                                    JOINT LeftFinger12
                                    {
                                        OFFSET   2.323460   0.000000   0.000000
                                        CHANNELS 3 Zrotation Xrotation Yrotation
                                        End Site
                                        {
                                            OFFSET   2.273050   0.000000   0.000000
                                        }
                                    }
                                }
                            }
                            JOINT LeftFinger2
                            {
                                OFFSET   8.364490   0.000015   1.078090
                                CHANNELS 3 Zrotation Xrotation Yrotation
                                JOINT LeftFinger21
                                {
                                    OFFSET   5.111620   0.000000   0.000000
                                    CHANNELS 3 Zrotation Xrotation Yrotation
                                    JOINT LeftFinger22
                                    {
                                        OFFSET   2.788160   0.000016   0.000000
                                        CHANNELS 3 Zrotation Xrotation Yrotation
                                        End Site
                                        {
                                            OFFSET   2.727660   0.000000   0.000000
                                        }
                                    }
                                }
                            }
                            JOINT LeftFinger3
                            {
                                OFFSET   7.899780   0.000017  -1.078090
                                CHANNELS 3 Zrotation Xrotation Yrotation
                                JOINT LeftFinger31
                                {
                                    OFFSET   4.646930   0.000000   0.000000
                                    CHANNELS 3 Zrotation Xrotation Yrotation
                                    JOINT LeftFinger32
                                    {
                                        OFFSET   2.323470   0.000000   0.000000
                                        CHANNELS 3 Zrotation Xrotation Yrotation
                                        End Site
                                        {
                                            OFFSET   2.273050   0.000000   0.000000
                                        }
                                    }
                                }
                            }
                            JOINT LeftFinger4
                            {
                                OFFSET   7.435090   0.000000  -3.252850
                                CHANNELS 3 Zrotation Xrotation Yrotation
                                JOINT LeftFinger41
                                {
                                    OFFSET   3.717550   0.000000   0.000000
                                    CHANNELS 3 Zrotation Xrotation Yrotation
                                    JOINT LeftFinger42
                                    {
                                        OFFSET   1.858770   0.000000   0.000000
                                        CHANNELS 3 Zrotation Xrotation Yrotation
                                        End Site
                                        {
                                            OFFSET   1.818440   0.000000   0.000000
                                        }
                                    }
                                }
                            }
                        }
                    }
                }
            }
            JOINT RightCollar
            {
                OFFSET  -3.911900  19.017000  -0.467063
                CHANNELS 3 Zrotation Xrotation Yrotation
                JOINT RightShoulder
                {
                    OFFSET -10.383700   0.000019   0.000000
                    CHANNELS 3 Zrotation Xrotation Yrotation
                    JOINT RightElbow
                    {
                        OFFSET -26.662100   0.001175   0.000102
                        CHANNELS 3 Zrotation Xrotation Yrotation
                        JOINT RightWrist
                        {
                            OFFSET -28.869000   0.000016  -0.000079
                            CHANNELS 3 Zrotation Xrotation Yrotation
                            JOINT RightFinger0
                            {
                                OFFSET  -2.044660  -2.323490   3.252850
                                CHANNELS 3 Zrotation Xrotation Yrotation
                                JOINT RightFinger01
                                {
                                    OFFSET  -3.088140   0.000000   0.000000
                                    CHANNELS 3 Zrotation Xrotation Yrotation
                                    JOINT RightFinger02
                                    {
                                        OFFSET  -2.639460   0.000000   0.000000
                                        CHANNELS 3 Zrotation Xrotation Yrotation
                                        End Site
                                        {
                                            OFFSET  -2.582190   0.000000   0.000000
                                        }
                                    }
                                }
                            }
                            JOINT RightFinger1
                            {
                                OFFSET  -8.364480   0.000000   3.252850
                                CHANNELS 3 Zrotation Xrotation Yrotation
                                JOINT RightFinger11
                                {
                                    OFFSET  -4.646930   0.000000   0.000000
                                    CHANNELS 3 Zrotation Xrotation Yrotation
                                    JOINT RightFinger12
                                    {
                                        OFFSET  -2.323470   0.000000   0.000000
                                        CHANNELS 3 Zrotation Xrotation Yrotation
                                        End Site
                                        {
                                            OFFSET  -2.273050   0.000000   0.000000
                                        }
                                    }
                                }
                            }
                            JOINT RightFinger2
                            {
                                OFFSET  -8.364480   0.000000   1.078090
                                CHANNELS 3 Zrotation Xrotation Yrotation
                                JOINT RightFinger21
                                {
                                    OFFSET  -5.111620   0.000000   0.000000
                                    CHANNELS 3 Zrotation Xrotation Yrotation
                                    JOINT RightFinger22
                                    {
                                        OFFSET  -2.788160   0.000000   0.000000
                                        CHANNELS 3 Zrotation Xrotation Yrotation
                                        End Site
                                        {
                                            OFFSET  -2.727660   0.000000   0.000000
                                        }
                                    }
                                }
                            }
                            JOINT RightFinger3
                            {
                                OFFSET  -7.899780   0.000000  -1.078090
                                CHANNELS 3 Zrotation Xrotation Yrotation
                                JOINT RightFinger31
                                {
                                    OFFSET  -4.646930   0.000000   0.000000
                                    CHANNELS 3 Zrotation Xrotation Yrotation
                                    JOINT RightFinger32
                                    {
                                        OFFSET  -2.323470   0.000000   0.000000
                                        CHANNELS 3 Zrotation Xrotation Yrotation
                                        End Site
                                        {
                                            OFFSET  -2.273050   0.000000   0.000000
                                        }
                                    }
                                }
                            }
                            JOINT RightFinger4
                            {
                                OFFSET  -7.435090   0.000000  -3.252850
                                CHANNELS 3 Zrotation Xrotation Yrotation
                                JOINT RightFinger41
                                {
                                    OFFSET  -3.717550   0.000000   0.000000
                                    CHANNELS 3 Zrotation Xrotation Yrotation
                                    JOINT RightFinger42
                                    {
                                        OFFSET  -1.858770   0.000000   0.000000
                                        CHANNELS 3 Zrotation Xrotation Yrotation
                                        End Site
                                        {
                                            OFFSET  -1.818440   0.000000   0.000000
                                        }
                                    }
                                }
                            }
                        }
                    }
                }
            }
        }
    }
    JOINT LeftHip
    {
        OFFSET   9.783040   0.000000   0.000000
        CHANNELS 3 Zrotation Xrotation Yrotation
        JOINT LeftKnee
        {
            OFFSET   0.000032 -41.789100  -0.002222
            CHANNELS 3 Zrotation Xrotation Yrotation
            JOINT LeftAnkle
            {
                OFFSET   0.000087 -41.133200  -0.000135
                CHANNELS 3 Zrotation Xrotation Yrotation
                JOINT LeftToe
                {
                    OFFSET   0.000000  -6.358960  14.674500
                    CHANNELS 3 Zrotation Xrotation Yrotation
                    End Site
                    {
                        OFFSET   0.000000   0.000000   3.913200
                    }
                }
            }
        }
    }
    JOINT RightHip
    {
        OFFSET  -9.783040   0.000000   0.000000
        CHANNELS 3 Zrotation Xrotation Yrotation
        JOINT RightKnee
        {
            OFFSET   0.000047 -41.789100  -0.000896
            CHANNELS 3 Zrotation Xrotation Yrotation
            JOINT RightAnkle
            {
                OFFSET  -0.000117 -41.133300  -0.000248
                CHANNELS 3 Zrotation Xrotation Yrotation
                JOINT RightToe
                {
                    OFFSET   0.000000  -6.358970  14.674500
                    CHANNELS 3 Zrotation Xrotation Yrotation
                    End Site
                    {
                        OFFSET   0.000000   0.000000   3.913200
                    }
                }
            }
        }
    }
}
MOTION
Frames: 5
Frame Time:   0.016667
 -1.431980  89.383100   2.412240  -1.320110 -12.143900   4.964630   1.810670  10.579500  -0.523036   3.821840  21.135700  -1.430510   0.950539   1.482820  -0.023427   1.562650   3.003780   1.671900  -7.305780  -0.924897  -0.845254 -66.382500  14.676600 -13.567300   4.628350  10.713100 -98.986900  19.611100 -11.066500   1.778350  46.046300  51.927900 -74.830400 -46.098700  -0.002566  -0.001588 -22.941400  -0.002543  -0.005767 -88.995900   5.000130  -0.091071 -78.597900   0.001331  -0.005879 -58.948400  -0.001169  -0.003486 -89.000000  -0.003292   0.001269 -92.100700   0.001413  -0.003658 -69.075500   0.001043   0.005041 -88.996900  -4.997140   0.085707 -100.173000   0.001182  -0.002043 -75.129500   0.005007  -0.000115 -88.985400  -9.996720   0.172005 -110.000000  -0.001964   0.001705 -80.000000  -0.002344  -0.007308  -0.871762  -4.270650  11.606100  72.818600  17.916200   5.790750 -11.708900 -23.895200  97.583300 -21.972500  -9.252310  23.860600 -24.867300  29.016000  62.056300  58.964600  -0.005668   0.009752  32.610500   0.000025   0.013580  88.996000   5.000570   0.090563  84.942500  -0.006422  -0.001303  63.706900   0.003422   0.000033  88.992800   0.002911  -0.005241  95.327500  -0.007750   0.005506  71.495700  -0.001477   0.002522  88.996700  -4.998480  -0.087891  96.673800  -0.008886  -0.003838  72.505400  -0.000257   0.003266  88.984600  -9.999160  -0.176311 110.000000  -0.003201  -0.001105  80.000000  -0.002319   0.004092   1.873490  14.076800   2.492540   3.857440   2.280450  -3.999820  -2.678100  -3.583250  -3.115300   0.000000   0.000000  -0.000000   2.943990   8.831510  -7.186460  -0.850967  10.705100   1.284650  -2.385590  -6.959090  -0.189381   0.000000   0.000000   0.000000
 -1.457520  89.384500   2.467340  -1.627940 -12.146600   4.173980   1.887620  10.626700  -0.405890   3.958360  21.233300  -1.207050   0.986605   1.429040  -0.024114   1.622760   2.894290   1.926480  -7.459750  -0.984996  -0.576686 -66.182200  15.432600 -10.320000   4.501690  10.316500 -98.231400  19.576100 -11.816800   1.505480  45.918600  51.416100 -74.371600 -45.570800  -0.002566  -0.001587 -22.374800  -0.002544  -0.004645 -88.995900   5.000040  -0.091196 -78.596300   0.001296  -0.005836 -58.947200  -0.001227  -0.003646 -89.000000  -0.003327   0.001229 -92.099800   0.001233  -0.003691 -69.074800   0.001081   0.005114 -88.996900  -4.997190   0.085874 -100.106000   0.001024  -0.002117 -75.079300   0.004980  -0.000300 -88.985400  -9.996690   0.171923 -110.000000  -0.002002   0.001737 -80.000000  -0.002304  -0.007207  -0.773399  -4.880460  12.139300  71.211200  18.799600   9.206320 -12.447600 -24.658500  97.556400 -21.831700  -7.640950  23.666300 -24.381100  28.974300  61.682200  59.958200  -0.005615   0.009809  33.272200   0.000000   0.012999  88.995900   5.000600   0.090801  84.562700  -0.005348  -0.001315  63.422000   0.003514   0.000000  88.992600   0.002977  -0.005304  94.877100  -0.007351   0.005843  71.157800  -0.001402   0.001988  88.996700  -4.998390  -0.087899  96.127800  -0.007103  -0.003925  72.095800  -0.000274   0.002527  88.984600  -9.999090  -0.176311 110.000000  -0.003261  -0.001126  80.000000  -0.002278   0.004039   1.985200  14.192600   2.579490   3.878650   2.354060  -3.622150  -2.533570  -3.859450  -2.813150  -0.000000   0.000000   0.000000   3.138050   8.781160  -7.098150  -0.986900  10.729900   1.683090  -2.320250  -6.903750   0.140274  -0.000000   0.000000   0.000000
 -1.475530  89.400600   2.533410  -1.889850 -12.186500   3.439270   1.957860  10.684700  -0.162652   4.038530  21.357700  -0.722256   1.076710   1.370290  -0.024800   1.772150   2.775200   1.777650  -7.699470  -1.145140  -0.890734 -65.585300  17.448900  -7.299300   4.009370   8.788450 -97.169300  19.634600 -12.321400   0.801704  46.155200  51.271900 -74.946900 -44.975400  -0.002563  -0.001583 -21.690200  -0.002543  -0.003723 -88.995900   4.999970  -0.091319 -78.855000   0.001244  -0.005809 -59.141200  -0.001307  -0.003802 -89.000000  -0.003350   0.001187 -92.283300   0.001046  -0.003732 -69.212400   0.001115   0.005186 -88.996800  -4.997250   0.086044 -100.250000   0.000879  -0.002202 -75.187100   0.004963  -0.000472 -88.985400  -9.996650   0.171844 -110.000000  -0.002041   0.001767 -80.000000  -0.002264  -0.007101  -0.738318  -5.633010  12.514800  69.871800  19.586900  11.697900 -12.916500 -25.371500  97.403700 -21.694600  -6.552530  23.567800 -23.746800  28.584300  61.046300  60.980600  -0.005530   0.008457  33.953100   0.000000   0.011575  88.995900   5.000630   0.091025  84.185500  -0.004263  -0.001324  63.139100   0.003609  -0.000028  88.992500   0.003043  -0.005376  94.392200  -0.006740   0.006176  70.794200  -0.001315   0.001216  88.996700  -4.998300  -0.087914  95.523400  -0.005086  -0.003998  71.642600  -0.000275   0.001618  88.984600  -9.999010  -0.176318 110.000000  -0.003330  -0.001142  80.000000  -0.002218   0.003985   2.054660  14.366200   2.637160   3.908990   2.389670  -3.226930  -2.426290  -4.061610  -2.549950   0.000000   0.000000   0.000000   3.297240   8.754670  -7.077750  -1.113380  10.796400   2.089680  -2.258070  -6.867810   0.466988   0.000000   0.000000  -0.000000
 -1.489980  89.428400   2.604510  -2.097450 -12.223400   2.810420   1.982180  10.737000   0.120065   4.050920  21.471700  -0.150000   1.203150   1.295380  -0.025465   1.979300   2.623320   1.472650  -8.000960  -1.356240  -1.459440 -64.872600  20.077400  -4.670720   3.312350   6.806710 -96.014500  19.620500 -12.705700  -0.176216  46.398100  51.097600 -75.529700 -44.400700  -0.002560  -0.001576 -21.019800  -0.002542  -0.003210 -88.995900   4.999910  -0.091436 -79.181000   0.001192  -0.005786 -59.385700  -0.001356  -0.003959 -89.000000  -0.003370   0.001144 -92.511600   0.000858  -0.003776 -69.383600   0.001148   0.005253 -88.996800  -4.997310   0.086213 -100.393000   0.000740  -0.002288 -75.294900   0.004951  -0.000633 -88.985400  -9.996610   0.171768 -110.000000  -0.002078   0.001796 -80.000000  -0.002221  -0.006993  -0.758636  -6.412090  12.807500  68.808000  20.317900  13.404000 -13.344400 -25.995300  97.230400 -21.576200  -5.980190  23.463500 -23.223700  28.139300  60.383500  62.059400  -0.005422   0.005988  34.671500   0.000000   0.009514  88.995900   5.000660   0.091248  83.848000  -0.003227  -0.001330  62.886000   0.003704  -0.000059  88.992400   0.003107  -0.005445  93.931400  -0.005257   0.006502  70.448600  -0.001225   0.000259  88.996700  -4.998210  -0.087926  94.954700  -0.003051  -0.004062  71.216000  -0.000276   0.000536  88.984600  -9.998940  -0.176324 110.000000  -0.003400  -0.001160  80.000000  -0.002154   0.003928   2.079710  14.543300   2.660880   3.936660   2.401960  -2.852790  -2.372220  -4.205500  -2.328360  -0.000000   0.000000   0.000000   3.375750   8.728220  -7.074400  -1.229930  10.886600   2.482080  -2.204680  -6.853050   0.760761   0.000000   0.000000  -0.000000
 -1.508220  89.460100   2.676460  -2.237310 -12.226400   2.295710   1.934020  10.758700   0.427816   3.908360  21.525700   0.489643   1.381170   1.180610  -0.026204   2.275110   2.390200   0.997796  -8.387090  -1.614410  -2.164000 -63.983500  22.652200  -2.699540   2.765450   4.656610 -95.030400  19.277300 -12.976700  -1.379740  45.828700  50.359800 -75.072100 -44.112000  -0.002560  -0.001571 -20.668900  -0.002541  -0.003213 -88.995800   4.999830  -0.091545 -79.259400   0.001156  -0.005754 -59.444600  -0.000275  -0.004127 -89.000000  -0.003396   0.001105 -92.563900   0.000675  -0.003820 -69.422900   0.001189   0.005311 -88.996800  -4.997360   0.086377 -100.385000   0.000605  -0.002368 -75.288900   0.004941  -0.000791 -88.985400  -9.996590   0.171696 -110.000000  -0.002109   0.001824 -80.000000  -0.002175  -0.006879  -0.873322  -7.162820  13.047500  68.191600  21.000300  14.236100 -13.821500 -26.548300  97.228700 -21.546600  -5.900530  23.095400 -22.749400  27.945600  59.893700  63.151200  -0.005303   0.003343  35.398600   0.000000   0.006710  88.995900   5.000690   0.091488  83.690600  -0.002518  -0.001333  62.767900   0.003804  -0.000096  88.992300   0.003166  -0.005500  93.660400  -0.001759   0.006818  70.245400  -0.001141  -0.000826  88.996700  -4.998110  -0.087927  94.637300  -0.001458  -0.004118  70.978000  -0.000290  -0.000673  88.984600  -9.998870  -0.176314 110.000000  -0.003464  -0.001189  80.000000  -0.002097   0.003863   2.072500  14.691300   2.623570   3.951820   2.404830  -2.530970  -2.359540  -4.289010  -2.139970   0.000000   0.000000   0.000000   3.385740   8.680860  -7.159530  -1.325010  10.992200   2.874530  -2.168170  -6.856340   0.980305   0.000000   0.000000   0.000000
